<svg width="9" height="18" viewBox="0 0 9 18" fill="none" xmlns="http://www.w3.org/2000/svg">
<path d="M3.53835 18C3.46921 18 3.40008 17.9622 3.33094 17.9244C3.22724 17.8488 3.1581 17.6598 3.19267 17.5086L4.71364 11.3472L0.150738 7.26488C0.0124678 7.15148 -0.0220997 7.00028 0.0124678 6.84908C0.0470352 6.69788 0.185305 6.58448 0.323575 6.58448L6.20004 6.24428L8.34322 0.234125C8.41235 0.0829256 8.55062 -0.0304736 8.72346 0.00732615C8.8963 0.0451259 9 0.196325 9 0.385324V14.031C9 14.1444 8.93087 14.2956 8.82716 14.3334L3.71118 17.9244C3.67662 17.9622 3.60748 18 3.53835 18Z" fill="#FCD342"/>
</svg>
